# xmcd CD database file
#
# Track frame offsets:
#	150
#	18898
#	34308
#	52621
#	73232
#	90666
#	110482
#	127303
#	147675
#	168824
#	187494
#	209997
#
# Disc length: 3062 seconds
#
# Revision: 0
# Processed by: cddbd v1.5.2PL0 Copyright (c) Steve Scherf et al.
# Submitted via: CDex 1.70beta2
#
DISCID=be0bf40c
DTITLE=The Wreckery - Past Imperfect (Disc1)
DYEAR=2008
DGENRE=Blues
TTITLE0=No Shoes For This Road 
TTITLE1=Good To Be Gone 
TTITLE2=Hometown Exile  
TTITLE3=Body Like A Stone
TTITLE4=Holy Honey 
TTITLE5=I Can't Say 
TTITLE6=Baby Play Dead  
TTITLE7=Clue To My Desire 
TTITLE8=Kickdown 
TTITLE9=Passion Fall Down 
TTITLE10=Base Devil 
TTITLE11=Governor's Pleasure 
EXTD=YEAR: 2008
EXTT0=
EXTT1=
EXTT2=
EXTT3=
EXTT4=
EXTT5=
EXTT6=
EXTT7=
EXTT8=
EXTT9=
EXTT10=
EXTT11=
PLAYORDER=
